<svg width="308" height="42" viewBox="0 0 308 42" fill="none" xmlns="http://www.w3.org/2000/svg">
<path d="M16.848 34.756C6.804 34.756 0.486 27.79 0.486 17.692C0.486 7.648 7.182 0.843999 16.956 0.843999C25.704 0.843999 31.374 6.298 32.292 14.668L24.786 15.91C24.03 10.834 21.492 7.864 16.74 7.864C11.124 7.864 8.262 12.292 8.262 17.692C8.262 23.794 11.124 27.79 16.794 27.79C21.6 27.79 23.922 24.712 24.84 19.42L32.238 20.5C31.374 28.87 25.488 34.756 16.848 34.756ZM46.5708 34.756C38.3088 34.756 33.2868 29.626 33.2868 21.202C33.2868 12.67 38.4708 7.702 46.5708 7.702C54.6168 7.702 59.8008 12.67 59.8008 21.202C59.8008 29.626 54.7788 34.756 46.5708 34.756ZM46.5708 14.398C42.7908 14.398 40.6848 17.044 40.6848 21.148C40.6848 25.306 42.7368 28.006 46.5168 28.006C50.3508 28.006 52.4568 25.306 52.4568 21.148C52.4568 17.044 50.2968 14.398 46.5708 14.398ZM69.1314 18.988V34H61.7334V8.404H69.1314V15.586H69.1854C70.3734 9.7 73.4514 7.702 77.5554 7.702C82.7394 7.702 85.1154 10.888 85.3854 15.748H85.4934C86.6274 9.754 89.4894 7.702 93.8634 7.702C99.4254 7.702 101.801 11.374 101.801 16.882V34H94.4574V18.988C94.4574 16.342 93.2154 14.344 90.1374 14.344C87.1674 14.344 85.4394 16.072 85.4394 18.988V34H78.0954V18.988C78.0954 16.342 76.9074 14.344 73.8294 14.344C70.8594 14.344 69.1314 16.072 69.1314 18.988ZM117.352 28.114C121.024 28.114 122.698 25.522 122.698 21.094C122.698 16.828 121.078 14.344 117.352 14.344C113.95 14.344 111.952 16.666 111.952 20.878V21.364C111.952 25.522 113.95 28.114 117.352 28.114ZM129.988 21.04C129.988 29.68 126.694 34.756 120.484 34.756C116.056 34.756 113.302 32.488 112.06 27.088H111.952V41.344H104.554V8.404H111.952V15.316H112.06C113.302 9.916 116.218 7.702 120.646 7.702C126.802 7.702 129.988 12.724 129.988 21.04ZM144.235 34.756C135.973 34.756 130.951 29.626 130.951 21.202C130.951 12.67 136.135 7.702 144.235 7.702C152.281 7.702 157.465 12.67 157.465 21.202C157.465 29.626 152.443 34.756 144.235 34.756ZM144.235 14.398C140.455 14.398 138.349 17.044 138.349 21.148C138.349 25.306 140.401 28.006 144.181 28.006C148.015 28.006 150.121 25.306 150.121 21.148C150.121 17.044 147.961 14.398 144.235 14.398ZM170.197 34.756C161.557 34.756 158.911 30.814 158.155 26.116L165.013 24.766C165.715 27.628 167.227 29.302 170.359 29.302C172.735 29.302 173.923 28.438 173.977 26.872C173.977 25.468 173.005 24.658 168.415 23.74C161.233 22.228 158.803 19.798 158.803 15.586C158.803 10.726 162.313 7.702 169.495 7.702C176.839 7.702 179.863 10.726 180.835 15.478L173.815 17.044C173.221 14.29 171.979 12.994 169.441 12.994C167.281 12.994 166.093 13.858 166.093 15.262C166.093 16.666 166.741 17.638 171.763 18.556C179.107 20.014 181.213 22.768 181.213 26.602C181.213 31.624 177.865 34.756 170.197 34.756ZM195.17 13.804C191.93 13.804 190.04 15.316 189.554 18.934H200.354C200.138 15.532 198.464 13.804 195.17 13.804ZM195.278 34.702C187.556 34.702 182.156 30.274 182.156 21.742C182.156 12.886 187.07 7.702 195.386 7.702C203.27 7.702 207.104 12.724 207.104 19.69C207.104 20.824 207.104 21.688 206.996 23.092H189.5C189.986 26.764 191.93 28.384 195.386 28.384C198.788 28.384 199.922 26.71 200.516 24.712L206.888 26.494C205.646 31.138 202.298 34.702 195.278 34.702ZM230.748 34.756C220.272 34.702 216.708 29.464 215.952 23.578L223.566 22.066C224.322 25.954 227.238 28.06 231.288 28.06C234.528 28.06 236.364 26.926 236.364 24.874C236.364 22.822 234.69 21.742 228.912 20.878C219.948 19.528 217.086 15.802 217.086 10.672C217.086 4.57 221.46 0.843999 229.938 0.843999C238.848 0.843999 242.52 5.434 243.654 11.266L235.986 12.832C235.068 9.16 233.394 7.378 229.506 7.378C226.482 7.378 224.97 8.62 224.97 10.51C224.97 12.184 225.834 13.48 232.638 14.506C241.872 15.964 244.302 20.014 244.302 24.604C244.302 30.76 240.144 34.756 230.748 34.756ZM259.372 8.134H254.242V27.466H259.642C266.284 27.466 269.092 23.794 269.092 17.422C269.092 11.05 266.176 8.134 259.372 8.134ZM246.466 34V1.6H260.344C271.738 1.6 276.814 7.702 276.814 17.422C276.814 27.142 270.82 34 260.398 34H246.466ZM298.606 34L287.158 21.85H286.726V34H278.95V1.6H286.726V15.586H287.158L298.552 1.6H307.462V1.708L293.044 18.178L307.84 33.892V34H298.606Z" fill="white"/>
</svg>
