<svg width="131" height="32" viewBox="0 0 131 32" fill="none" xmlns="http://www.w3.org/2000/svg">
<g clip-path="url(#clip0_445_905)">
<path d="M14.7228 8.47656H14.7012V15.0679H14.7228C16.1027 15.0679 17.426 15.6128 18.4018 16.5827C19.3775 17.5526 19.9256 18.8681 19.9256 20.2398C19.9256 21.6115 19.3775 22.927 18.4018 23.8969C17.426 24.8668 16.1027 25.4117 14.7228 25.4117H14.7012V32.0006H14.7228C16.2765 32.0006 17.815 31.6964 19.2504 31.1054C20.6858 30.5144 21.9901 29.6481 23.0887 28.556C24.1874 27.4639 25.0588 26.1674 25.6534 24.7405C26.248 23.3136 26.554 21.7843 26.554 20.2398C26.554 18.6953 26.248 17.166 25.6534 15.7391C25.0588 14.3122 24.1874 13.0157 23.0887 11.9236C21.9901 10.8315 20.6858 9.96523 19.2504 9.37419C17.815 8.78315 16.2765 8.47895 14.7228 8.47895V8.47656Z" fill="white"/>
<path d="M11.8313 23.5217H11.8528V16.9375H11.8313C10.4514 16.9375 9.12799 16.3926 8.15227 15.4227C7.17654 14.4528 6.62838 13.1373 6.62838 11.7656C6.62838 10.3939 7.17654 9.07845 8.15227 8.10853C9.12799 7.13861 10.4514 6.59371 11.8313 6.59371H11.8528V0H11.8313C8.69341 4.64793e-08 5.68408 1.23909 3.46529 3.44467C1.2465 5.65026 0 8.64168 0 11.7608C0 14.88 1.2465 17.8714 3.46529 20.077C5.68408 22.2826 8.69341 23.5217 11.8313 23.5217Z" fill="#FFD537"/>
<path d="M50.3874 8.55078H46.5645V23.5226H50.3874V8.55078Z" fill="white"/>
<path d="M50.4042 4.80689C50.4042 4.42944 50.2916 4.06046 50.0807 3.74661C49.8697 3.43277 49.5699 3.18816 49.219 3.04371C48.8682 2.89926 48.4822 2.86147 48.1098 2.93511C47.7374 3.00875 47.3953 3.19051 47.1268 3.45741C46.8583 3.72431 46.6754 4.06437 46.6013 4.43457C46.5273 4.80478 46.5653 5.1885 46.7106 5.53723C46.8559 5.88595 47.102 6.18401 47.4177 6.39371C47.7334 6.60342 48.1046 6.71535 48.4843 6.71535C48.9935 6.71535 49.4818 6.51428 49.8419 6.15637C50.2019 5.79847 50.4042 5.31305 50.4042 4.80689Z" fill="#FFD537"/>
<path d="M75.06 8.42969C79.3941 8.42969 82.346 11.6621 82.346 16.3903V17.2277H71.5466C71.7866 19.055 73.2625 20.5794 75.732 20.5794C77.0855 20.5794 78.6814 20.0426 79.6149 19.148L81.2948 21.6028C79.8549 22.9196 77.5607 23.6091 75.2952 23.6091C70.8699 23.6091 67.5293 20.6462 67.5293 16.0062C67.5341 11.8124 70.6347 8.42969 75.06 8.42969ZM71.477 14.656H78.643C78.5518 13.2795 77.5895 11.4522 75.06 11.4522C72.6818 11.4522 71.657 13.2175 71.477 14.656Z" fill="white"/>
<path d="M94.7294 14.5027C94.7294 12.4964 93.6735 11.8094 92.0488 11.8094C91.4011 11.8165 90.764 11.9745 90.1888 12.2707C89.6137 12.5669 89.1164 12.9931 88.737 13.5151V23.5201H84.9141V8.5149H88.737V10.6619C89.3739 9.94556 90.1593 9.37482 91.0392 8.98896C91.9191 8.60309 92.8727 8.41126 93.8343 8.42664C97.0261 8.42664 98.562 10.223 98.562 13.0356V23.5201H94.7294V14.5027Z" fill="white"/>
<path d="M123.222 8.42969C127.556 8.42969 130.508 11.6621 130.508 16.3903V17.2277H119.709C119.949 19.055 121.425 20.5794 123.894 20.5794C125.248 20.5794 126.844 20.0426 127.777 19.148L129.457 21.6028C128.017 22.9196 125.723 23.6091 123.457 23.6091C119.032 23.6091 115.691 20.6462 115.691 16.0062C115.696 11.8124 118.792 8.42969 123.222 8.42969ZM119.639 14.656H126.805C126.712 13.2795 125.752 11.4522 123.222 11.4522C120.844 11.4522 119.819 13.2175 119.639 14.656Z" fill="white"/>
<path d="M32.8921 19.2964C33.6385 19.69 35.7719 20.5942 37.567 20.5942C39.0261 20.5942 39.8325 20.1958 39.8325 19.2964C39.8325 18.2802 38.8726 17.8365 37.2167 17.5072C34.716 17.0301 31.325 16.1737 31.325 12.7361C31.325 10.3124 32.9737 8.49219 37.5646 8.49219C39.6118 8.49886 41.6167 9.07124 43.3555 10.1454L41.8124 12.7218C40.5683 11.8575 39.0896 11.3891 37.5718 11.3787C36.1055 11.3787 35.2896 11.8868 35.292 12.7242C35.292 13.6522 36.1295 13.9766 37.555 14.1865C40.0725 14.5587 43.7946 15.7133 43.7946 19.306C43.7946 21.9301 41.5868 23.5308 37.555 23.5308C35.028 23.5308 32.537 22.7746 31.3154 21.9611L32.8921 19.2964Z" fill="white"/>
<path d="M54.5152 19.2964C55.2591 19.69 57.395 20.5942 59.1901 20.5942C60.6468 20.5942 61.4531 20.1958 61.4531 19.2964C61.4531 18.2802 60.4932 17.8365 58.8373 17.5072C56.3391 17.0301 52.9457 16.1737 52.9457 12.7361C52.9457 10.3124 54.5944 8.49219 59.1853 8.49219C61.2325 8.49798 63.2377 9.07043 64.9761 10.1454L63.433 12.7218C62.1891 11.8572 60.7103 11.3888 59.1925 11.3787C57.7262 11.3787 56.9102 11.8868 56.9126 12.7242C56.9126 13.6522 57.7502 13.9766 59.1781 14.1865C61.6931 14.5587 65.4177 15.7133 65.4177 19.306C65.4177 21.9301 63.2122 23.5308 59.1781 23.5308C56.6486 23.5308 54.16 22.7746 52.9385 21.9611L54.5152 19.2964Z" fill="white"/>
<path d="M102.675 19.2964C103.422 19.69 105.555 20.5942 107.353 20.5942C108.809 20.5942 109.616 20.1958 109.616 19.2964C109.616 18.2802 108.656 17.8365 107 17.5072C104.502 17.0301 101.108 16.1737 101.108 12.7361C101.108 10.3124 102.757 8.49219 107.348 8.49219C109.395 8.49798 111.4 9.07043 113.139 10.1454L111.596 12.7218C110.352 11.8572 108.873 11.3888 107.355 11.3787C105.889 11.3787 105.073 11.8868 105.075 12.7242C105.075 13.6522 105.913 13.9766 107.338 14.1865C109.856 14.5587 113.578 15.7133 113.578 19.306C113.578 21.9301 111.372 23.5308 107.338 23.5308C104.811 23.5308 102.32 22.7746 101.099 21.9611L102.675 19.2964Z" fill="white"/>
</g>
<defs>
<clipPath id="clip0_445_905">
<rect width="130.509" height="32" fill="white"/>
</clipPath>
</defs>
</svg>
